<svg width="95" height="93" viewBox="0 0 95 93" fill="none" xmlns="http://www.w3.org/2000/svg">
<path d="M12.3024 76C11.9064 76 11.5874 75.692 11.5874 75.296V69.664C11.5874 69.279 11.9064 68.96 12.3024 68.96H14.2274C15.7124 68.96 16.9114 70.148 16.9114 71.633C16.9114 73.096 15.7124 74.196 14.2274 74.196H13.0174V75.296C13.0174 75.681 12.6984 76 12.3024 76ZM13.0174 72.876H14.2494C14.9864 72.876 15.4814 72.326 15.4814 71.589C15.4814 70.852 14.9864 70.28 14.2494 70.28H13.0174V72.876ZM22.8918 74.834C23.1888 75.252 23.1558 75.648 22.8698 75.857C22.5618 76.088 22.0778 76.132 21.8028 75.747L20.4938 73.932C20.3728 73.943 20.2518 73.943 20.1198 73.943H19.1298V75.296C19.1298 75.681 18.8108 76 18.4148 76C18.0188 76 17.6998 75.681 17.6998 75.296V69.664C17.6998 69.279 18.0188 68.96 18.4148 68.96H20.3398C21.8248 68.96 23.0238 70.082 23.0238 71.479C23.0238 72.447 22.5838 73.107 21.9238 73.492L22.8918 74.834ZM19.1298 72.623H20.3618C21.0878 72.623 21.5938 72.139 21.5938 71.479C21.5938 70.808 21.0878 70.28 20.3618 70.28H19.1298V72.623ZM27.3924 76.099C25.4014 76.099 23.7404 74.493 23.7404 72.491C23.7404 70.489 25.4014 68.85 27.3924 68.85C29.3614 68.85 31.0554 70.489 31.0554 72.491C31.0554 74.493 29.3614 76.099 27.3924 76.099ZM27.3924 74.746C28.6684 74.746 29.6254 73.789 29.6254 72.491C29.6254 71.171 28.6684 70.203 27.3924 70.203C26.1164 70.203 25.1704 71.171 25.1704 72.491C25.1704 73.789 26.1164 74.746 27.3924 74.746ZM32.7126 76C32.3166 76 31.9976 75.681 31.9976 75.296V69.664C31.9976 69.224 32.3276 68.949 32.6906 68.949C32.8776 68.949 33.0756 69.015 33.2186 69.169L35.4736 71.787L37.6956 69.158C37.8606 69.004 38.0586 68.96 38.2016 68.96C38.5976 68.96 38.9166 69.268 38.9166 69.664V75.296C38.9166 75.681 38.5976 76 38.2016 76C37.8166 76 37.4866 75.681 37.4866 75.296V71.479L35.9246 73.36C35.6386 73.646 35.2866 73.646 35.0006 73.349L33.4276 71.479V75.296C33.4276 75.681 33.1086 76 32.7126 76ZM43.5164 76.099C41.5254 76.099 39.8644 74.493 39.8644 72.491C39.8644 70.489 41.5254 68.85 43.5164 68.85C45.4854 68.85 47.1794 70.489 47.1794 72.491C47.1794 74.493 45.4854 76.099 43.5164 76.099ZM43.5164 74.746C44.7924 74.746 45.7494 73.789 45.7494 72.491C45.7494 71.171 44.7924 70.203 43.5164 70.203C42.2404 70.203 41.2944 71.171 41.2944 72.491C41.2944 73.789 42.2404 74.746 43.5164 74.746ZM51.3556 76.099C49.4196 76.099 47.8136 74.46 47.8136 72.491C47.8136 70.61 49.3096 68.85 51.3006 68.85C52.3016 68.85 53.0606 69.136 53.7976 69.807C54.0946 70.071 54.1716 70.478 53.9516 70.786C53.7206 71.094 53.2476 71.061 52.9286 70.83C52.4886 70.456 51.9826 70.214 51.3776 70.214C50.2226 70.214 49.2436 71.116 49.2436 72.48C49.2436 73.712 50.1456 74.735 51.3556 74.735C51.9826 74.735 52.4886 74.515 52.9286 74.13C53.2476 73.899 53.7206 73.866 53.9406 74.174C54.1716 74.482 54.0946 74.9 53.7976 75.164C53.0606 75.824 52.2796 76.099 51.3556 76.099ZM55.7439 76C55.3479 76 55.0289 75.681 55.0289 75.296V69.664C55.0289 69.268 55.3479 68.96 55.7439 68.96C56.1399 68.96 56.4589 69.268 56.4589 69.664V75.296C56.4589 75.681 56.1399 76 55.7439 76ZM61.0584 76.099C59.0674 76.099 57.4064 74.493 57.4064 72.491C57.4064 70.489 59.0674 68.85 61.0584 68.85C63.0274 68.85 64.7214 70.489 64.7214 72.491C64.7214 74.493 63.0274 76.099 61.0584 76.099ZM61.0584 74.746C62.3344 74.746 63.2914 73.789 63.2914 72.491C63.2914 71.171 62.3344 70.203 61.0584 70.203C59.7824 70.203 58.8364 71.171 58.8364 72.491C58.8364 73.789 59.7824 74.746 61.0584 74.746ZM71.1966 68.96C71.5926 68.96 71.9006 69.268 71.9006 69.664V75.296C71.9006 75.593 71.7026 76 71.3286 76C71.0646 76 70.8886 75.956 70.6246 75.681L67.0936 71.468V75.296C67.0936 75.681 66.7746 76 66.3786 76C65.9826 76 65.6636 75.681 65.6636 75.296V69.686C65.6636 69.356 65.8506 69.114 66.0926 69.015C66.3676 68.905 66.7086 68.96 66.9396 69.224L70.4706 73.437V69.664C70.4706 69.268 70.7896 68.96 71.1966 68.96ZM73.8109 76C73.4369 75.967 73.1509 75.681 73.1509 75.296V69.675C73.1509 69.279 73.4479 68.96 73.8659 68.96H77.5619C77.9579 68.96 78.2659 69.279 78.2659 69.664C78.2659 69.972 77.9579 70.28 77.5619 70.28H74.5809V71.798H76.9569C77.3529 71.798 77.6389 72.084 77.6389 72.436C77.6389 72.81 77.3529 73.118 76.9569 73.118H74.5809V74.68H77.5619C77.9579 74.68 78.2659 75.01 78.2659 75.296C78.2659 75.692 77.9579 76 77.5619 76H73.8109ZM81.1793 76.099C80.0353 76.099 79.2653 75.494 78.9133 74.955C78.5833 74.504 78.9133 73.888 79.4523 73.888C79.6283 73.888 79.8373 73.965 80.0133 74.152C80.2883 74.504 80.7063 74.746 81.3113 74.746C81.8833 74.746 82.3233 74.471 82.3233 73.888C82.3233 73.437 81.9053 73.272 81.1353 72.986C79.9363 72.557 78.9573 72.095 78.9573 70.896C78.9573 69.631 79.9583 68.85 81.2343 68.85C82.1033 68.85 82.9833 69.202 83.4013 69.884C83.5553 70.148 83.4453 70.467 83.2693 70.632C83.0823 70.819 82.6863 70.896 82.3783 70.665C82.0373 70.346 81.6303 70.192 81.1243 70.192C80.7173 70.192 80.3653 70.39 80.3653 70.83C80.3653 71.336 80.8933 71.534 81.4213 71.71C82.7523 72.161 83.7643 72.634 83.7643 73.888C83.7643 75.109 82.6753 76.099 81.1793 76.099Z" fill="#CACACA"/>
<path d="M17.6424 29.6158L19.8183 27.4825L20.758 18.0914C20.489 18.0659 20.2393 17.9425 20.0577 17.7453C19.8761 17.548 19.7757 17.2911 19.7759 17.0248V14.8801C19.779 14.0247 20.1262 13.2054 20.7413 12.6019C21.3564 11.9985 22.1893 11.6601 23.0572 11.6611H27.4283C28.2962 11.6601 29.129 11.9985 29.7442 12.6019C30.3593 13.2054 30.7065 14.0247 30.7095 14.8801V17.0248C30.7098 17.2911 30.6093 17.548 30.4277 17.7453C30.2461 17.9425 29.9964 18.0659 29.7275 18.0914L30.6633 27.4825L32.8392 29.6158C33.5518 30.3108 34.117 31.1386 34.5018 32.051C34.8866 32.9633 35.0834 33.942 35.0806 34.9301V56.7225C35.0766 57.8622 34.6141 58.9537 33.7947 59.7578C32.9753 60.5619 31.8658 61.0129 30.7095 61.0119H19.7759C18.6197 61.0129 17.5102 60.5619 16.6908 59.7578C15.8714 58.9537 15.4089 57.8622 15.4048 56.7225V34.9263C15.4014 33.9385 15.5975 32.9599 15.9816 32.0475C16.3658 31.1351 16.9303 30.3072 17.6424 29.612V29.6158ZM32.8931 39.5536H29.6158C29.4556 39.555 29.297 39.5218 29.1512 39.4562C29.0055 39.3906 28.8762 39.2943 28.7724 39.174C28.3539 38.64 27.8196 38.2051 27.2085 37.901C26.5975 37.5969 25.9252 37.4314 25.2408 37.4165C24.5566 37.4319 23.8844 37.5977 23.2735 37.9017C22.6625 38.2058 22.1281 38.6404 21.7093 39.174C21.6062 39.2942 21.4776 39.3905 21.3325 39.4561C21.1873 39.5217 21.0293 39.555 20.8697 39.5536H17.5885V52.4255H20.8697C21.0293 52.4243 21.1872 52.4577 21.3323 52.5233C21.4774 52.5889 21.606 52.6851 21.7093 52.8051C22.1292 53.3374 22.6639 53.7712 23.2746 54.0751C23.8853 54.3791 24.5569 54.5456 25.2408 54.5626C25.9247 54.5456 26.5963 54.3791 27.207 54.0751C27.8177 53.7712 28.3524 53.3374 28.7724 52.8051C28.8763 52.685 29.0057 52.5888 29.1514 52.5232C29.2971 52.4576 29.4556 52.4243 29.6158 52.4255H32.8931V39.5536ZM22.9532 18.099L22.7375 20.2437H27.7441L27.5323 18.099H22.9532ZM27.9598 22.3884H22.5257L22.31 24.5369H28.1716L27.9598 22.3884ZM28.522 14.8801C28.5215 14.739 28.4928 14.5994 28.4376 14.4693C28.3824 14.3391 28.3017 14.221 28.2001 14.1216C28.0985 14.0222 27.9781 13.9435 27.8457 13.89C27.7132 13.8364 27.5714 13.8091 27.4283 13.8096H23.0572C22.914 13.8091 22.7722 13.8364 22.6398 13.89C22.5074 13.9435 22.3869 14.0222 22.2854 14.1216C22.1838 14.221 22.1031 14.3391 22.0479 14.4693C21.9926 14.5994 21.9639 14.739 21.9634 14.8801V15.9543H28.5105L28.522 14.8801ZM31.2949 31.1342L28.8417 28.7276C28.6633 28.5508 28.5518 28.319 28.5259 28.0709L28.3872 26.6816H22.0944L21.9557 28.0709C21.9321 28.3188 21.8218 28.5509 21.6438 28.7276L19.1906 31.1342C18.6811 31.6303 18.2771 32.2215 18.002 32.8733C17.7269 33.525 17.5863 34.2242 17.5885 34.9301V37.4127H20.3767C20.994 36.7443 21.7446 36.2089 22.5816 35.8398C23.4186 35.4708 24.3239 35.2761 25.2408 35.268C26.1583 35.2756 27.0644 35.47 27.9021 35.8391C28.7398 36.2081 29.491 36.7439 30.1087 37.4127H32.8931V34.9263C32.8958 34.2207 32.7558 33.5217 32.4814 32.8699C32.207 32.2182 31.8036 31.6269 31.2949 31.1304V31.1342ZM19.7759 58.8634H30.7095C31.2873 58.8634 31.8416 58.6377 32.2509 58.2357C32.6602 57.8337 32.8911 57.2882 32.8931 56.7187V54.574H30.1087C29.4904 55.242 28.7391 55.7773 27.9015 56.1463C27.0639 56.5153 26.1582 56.7102 25.2408 56.7187C24.324 56.7099 23.4189 56.5149 22.5821 56.1459C21.7452 55.7769 20.9944 55.2418 20.3767 54.574H17.5885V56.7187C17.5915 57.2885 17.8233 57.834 18.2332 58.2359C18.6431 58.6378 19.1978 58.8634 19.7759 58.8634Z" fill="#CACACA"/>
<path d="M78.1295 39.8496L75.4683 37.1431C75.367 37.0395 75.2908 36.9147 75.2455 36.778C75.2001 36.6412 75.1868 36.4961 75.2064 36.3536L75.7417 32.6298C75.8486 31.8981 75.6605 31.1543 75.2178 30.5577C74.7751 29.961 74.113 29.5589 73.3733 29.4374L69.5991 28.7883C69.455 28.7621 69.3189 28.7041 69.2008 28.6186C69.0828 28.5332 68.9859 28.4225 68.9174 28.2948L67.1266 24.9772C66.773 24.3189 66.1717 23.8234 65.4517 23.5971C64.7318 23.3707 63.9504 23.4314 63.2754 23.7663L59.8363 25.4213C59.7039 25.4831 59.5592 25.5152 59.4126 25.5152C59.2661 25.5152 59.1214 25.4831 58.989 25.4213L55.573 23.7663C54.8966 23.4323 54.1142 23.3733 53.394 23.6018C52.6738 23.8304 52.0734 24.3283 51.7218 24.9886L49.931 28.3062C49.8628 28.4348 49.7655 28.5462 49.6466 28.6318C49.5278 28.7174 49.3905 28.7748 49.2455 28.7997L45.4713 29.4488C44.7318 29.5702 44.07 29.9725 43.6279 30.5693C43.1859 31.1661 42.9987 31.9099 43.1066 32.6412L43.6381 36.365C43.6598 36.5076 43.6475 36.6532 43.602 36.7903C43.5565 36.9274 43.4792 37.0521 43.3762 37.1545L40.715 39.861C40.191 40.3882 39.8975 41.0968 39.8975 41.8349C39.8975 42.5729 40.191 43.2816 40.715 43.8088L43.3762 46.5114C43.4776 46.6149 43.5535 46.7398 43.5982 46.8767C43.643 47.0136 43.6553 47.1587 43.6343 47.301L43.0989 51.0248C42.9931 51.7567 43.1814 52.5005 43.6238 53.0976C44.0663 53.6946 44.7278 54.0977 45.4674 54.221L49.2416 54.8701C49.3862 54.8948 49.5231 54.9518 49.6419 55.0366C49.7607 55.1215 49.8583 55.232 49.9271 55.3597L51.7179 58.6774C52.0703 59.3369 52.6707 59.8342 53.3906 60.0627C54.1105 60.2912 54.8925 60.2327 55.5691 59.8997L59.0121 58.2484C59.144 58.1848 59.2889 58.1516 59.4357 58.1516C59.5826 58.1516 59.7275 58.1848 59.8594 58.2484L63.2985 59.8997C63.6968 60.0912 64.134 60.1912 64.5771 60.192C65.1027 60.1921 65.6183 60.0508 66.0683 59.7832C66.5183 59.5156 66.8856 59.1319 67.1305 58.6736L68.9213 55.3559C68.9899 55.228 69.0874 55.1174 69.2062 55.0325C69.3251 54.9476 69.4621 54.8907 69.6068 54.8663L73.381 54.2172C74.121 54.0948 74.7832 53.6919 75.2258 53.0946C75.6684 52.4974 75.8564 51.7531 75.7494 51.021L75.2141 47.301C75.1936 47.1584 75.2065 47.0131 75.2519 46.8762C75.2973 46.7393 75.374 46.6145 75.476 46.5114L78.1372 43.8088C78.6613 43.2816 78.9548 42.5729 78.9548 41.8349C78.9548 41.0968 78.6613 40.3882 78.1372 39.861L78.1295 39.8496ZM76.7546 42.4802L74.0934 45.1829C73.7881 45.493 73.5597 45.8685 73.4261 46.2801C73.2924 46.6917 73.2572 47.1281 73.3232 47.5553L73.8547 51.2791C73.8907 51.5201 73.8306 51.7654 73.687 51.9636C73.5433 52.1618 73.3274 52.2975 73.0844 52.342L69.3102 52.9911C68.8759 53.065 68.4645 53.2358 68.1075 53.4904C67.7504 53.745 67.457 54.0767 67.2498 54.4601L65.459 57.7777C65.3416 57.9963 65.1425 58.1612 64.9039 58.2377C64.6653 58.3142 64.4059 58.2963 64.1804 58.1877L60.7413 56.5327C60.3449 56.3446 59.9104 56.2473 59.4704 56.248C59.0292 56.2474 58.5935 56.3447 58.1957 56.5327L54.7565 58.1839C54.5317 58.2938 54.2723 58.3128 54.0335 58.2369C53.7947 58.1611 53.5953 57.9963 53.4779 57.7777L51.6871 54.4601C51.4816 54.0754 51.1887 53.7428 50.8313 53.488C50.4739 53.2331 50.0617 53.0631 49.6267 52.9911L45.8564 52.342C45.6135 52.2975 45.3975 52.1618 45.2539 51.9636C45.1102 51.7654 45.0501 51.5201 45.0862 51.2791L45.6215 47.5553C45.6854 47.1282 45.6492 46.6923 45.5157 46.281C45.3821 45.8698 45.1549 45.4941 44.8512 45.1829L42.1901 42.4802C42.0144 42.3047 41.9159 42.0681 41.9159 41.8216C41.9159 41.5751 42.0144 41.3385 42.1901 41.163L44.8512 38.4603C45.1549 38.1491 45.3821 37.7734 45.5157 37.3622C45.6492 36.9509 45.6854 36.515 45.6215 36.0879L45.0862 32.3679C45.05 32.1264 45.11 31.8806 45.2536 31.6818C45.3971 31.483 45.6132 31.3466 45.8564 31.3012L49.6306 30.6521C50.0646 30.5787 50.4757 30.4081 50.8322 30.1534C51.1888 29.8987 51.4813 29.5668 51.6871 29.1831L53.4779 25.8655C53.5954 25.6469 53.7945 25.482 54.0331 25.4055C54.2717 25.329 54.5311 25.3469 54.7565 25.4555L58.1957 27.1105C58.5927 27.2989 59.0278 27.3967 59.4685 27.3967C59.9092 27.3967 60.3442 27.2989 60.7413 27.1105L64.1804 25.4593C64.4052 25.3494 64.6647 25.3304 64.9035 25.4063C65.1423 25.4821 65.3416 25.6469 65.459 25.8655L67.2498 29.1831C67.4563 29.567 67.7495 29.8991 68.1067 30.1538C68.4639 30.4085 68.8757 30.579 69.3102 30.6521L73.0844 31.3012C73.3268 31.3483 73.5416 31.4851 73.6849 31.6835C73.8281 31.8818 73.8889 32.1267 73.8547 32.3679L73.3193 36.0879C73.2543 36.5151 73.2899 36.9513 73.4235 37.3627C73.5571 37.7741 73.785 38.1497 74.0896 38.4603L76.7546 41.163C76.9285 41.3394 77.0257 41.5757 77.0257 41.8216C77.0257 42.0675 76.9285 42.3038 76.7546 42.4802Z" fill="#CACACA"/>
<path d="M65.9017 35.4691C65.8119 35.3806 65.7053 35.3104 65.588 35.2625C65.4707 35.2146 65.345 35.1899 65.2181 35.1899C65.0911 35.1899 64.9654 35.2146 64.8481 35.2625C64.7308 35.3104 64.6242 35.3806 64.5345 35.4691L52.9539 46.8341C52.8644 46.9219 52.7933 47.0263 52.7448 47.1412C52.6963 47.2562 52.6714 47.3795 52.6714 47.504C52.6714 47.6285 52.6963 47.7518 52.7448 47.8668C52.7933 47.9818 52.8644 48.0862 52.9539 48.174C53.0457 48.2616 53.1543 48.3302 53.2733 48.3758C53.3924 48.4214 53.5195 48.4432 53.6471 48.4397C53.7737 48.4402 53.8991 48.4159 54.0161 48.3683C54.1331 48.3208 54.2393 48.2509 54.3288 48.1626L65.9132 36.7976C66.0028 36.7098 66.0738 36.6054 66.1223 36.4904C66.1708 36.3755 66.1957 36.2522 66.1957 36.1277C66.1957 36.0031 66.1708 35.8799 66.1223 35.7649C66.0738 35.6499 66.0028 35.5455 65.9132 35.4577L65.9017 35.4691Z" fill="#CACACA"/>
<path d="M58.4651 37.0862C58.4651 36.0795 58.0594 35.1139 57.3371 34.4021C56.6149 33.6902 55.6353 33.2903 54.6139 33.2903C53.5925 33.2903 52.6129 33.6902 51.8907 34.4021C51.1684 35.1139 50.7627 36.0795 50.7627 37.0862C50.7627 38.0929 51.1684 39.0584 51.8907 39.7703C52.6129 40.4822 53.5925 40.8821 54.6139 40.8821C55.1196 40.8821 55.6204 40.7839 56.0877 40.5932C56.5549 40.4024 56.9795 40.1228 57.3371 39.7703C57.6947 39.4178 57.9784 38.9994 58.1719 38.5388C58.3655 38.0783 58.4651 37.5847 58.4651 37.0862ZM52.669 37.0862C52.669 36.5828 52.8719 36.1001 53.233 35.7441C53.5942 35.3882 54.0839 35.1882 54.5946 35.1882C55.1053 35.1882 55.5951 35.3882 55.9563 35.7441C56.3174 36.1001 56.5202 36.5828 56.5202 37.0862C56.5202 37.5896 56.3174 38.0723 55.9563 38.4283C55.5951 38.7842 55.1053 38.9842 54.5946 38.9842C54.0839 38.9842 53.5942 38.7842 53.233 38.4283C52.8719 38.0723 52.669 37.5896 52.669 37.0862Z" fill="#CACACA"/>
<path d="M64.2496 42.7649C63.7439 42.7649 63.2431 42.8631 62.7758 43.0538C62.3086 43.2446 61.884 43.5242 61.5264 43.8767C61.1688 44.2292 60.8851 44.6476 60.6916 45.1082C60.4981 45.5687 60.3984 46.0623 60.3984 46.5608C60.3984 47.0593 60.4981 47.5529 60.6916 48.0134C60.8851 48.474 61.1688 48.8925 61.5264 49.2449C61.884 49.5974 62.3086 49.877 62.7758 50.0678C63.2431 50.2586 63.7439 50.3567 64.2496 50.3567C65.271 50.3567 66.2506 49.9568 66.9729 49.2449C67.6951 48.5331 68.1008 47.5676 68.1008 46.5608C68.1008 45.5541 67.6951 44.5886 66.9729 43.8767C66.2506 43.1648 65.271 42.7649 64.2496 42.7649ZM64.2496 48.4588C63.9968 48.4588 63.7464 48.4097 63.5127 48.3143C63.2791 48.2189 63.0668 48.0791 62.888 47.9029C62.7092 47.7266 62.5674 47.5174 62.4706 47.2871C62.3738 47.0569 62.324 46.8101 62.324 46.5608C62.324 46.3116 62.3738 46.0648 62.4706 45.8345C62.5674 45.6042 62.7092 45.395 62.888 45.2188C63.0668 45.0425 63.2791 44.9027 63.5127 44.8073C63.7464 44.7119 63.9968 44.6629 64.2496 44.6629C64.7603 44.6629 65.2501 44.8628 65.6112 45.2188C65.9724 45.5747 66.1752 46.0574 66.1752 46.5608C66.1702 47.0609 65.9651 47.5388 65.6045 47.8906C65.2439 48.2425 64.757 48.4398 64.2496 48.4398V48.4588Z" fill="#CACACA"/>
<path d="M21.9634 45.9914C21.9654 46.8465 22.3117 47.6658 22.9263 48.2693C23.5408 48.8729 24.3732 49.2114 25.2408 49.2104C25.6706 49.2114 26.0965 49.1289 26.4941 48.9676C26.8916 48.8064 27.2531 48.5696 27.5577 48.2707C27.8624 47.9718 28.1044 47.6166 28.2699 47.2256C28.4353 46.8345 28.521 46.4151 28.522 45.9914C28.521 45.5677 28.4353 45.1483 28.2699 44.7572C28.1044 44.3662 27.8624 44.011 27.5577 43.7121C27.2531 43.4132 26.8916 43.1764 26.4941 43.0152C26.0965 42.8539 25.6706 42.7715 25.2408 42.7725C24.3732 42.7715 23.5408 43.1099 22.9263 43.7135C22.3117 44.317 21.9654 45.1363 21.9634 45.9914Z" fill="#CACACA"/>
</svg>
